<svg width="19" height="22" viewBox="0 0 19 22" fill="none" xmlns="http://www.w3.org/2000/svg">
<path d="M4.82812 5.5C4.54219 5.5 4.26796 5.60865 4.06578 5.80205C3.86359 5.99544 3.75 6.25775 3.75 6.53125V11.3438C3.75 11.913 4.233 12.375 4.82812 12.375H14.1719C14.4578 12.375 14.732 12.2664 14.9342 12.073C15.1364 11.8796 15.25 11.6173 15.25 11.3438V6.53125C15.25 6.25775 15.1364 5.99544 14.9342 5.80205C14.732 5.60865 14.4578 5.5 14.1719 5.5H4.82812ZM5.1875 11V6.875H13.8125V11H5.1875ZM5.1875 3.4375C5.1875 3.61984 5.11177 3.7947 4.97698 3.92364C4.84219 4.05257 4.65937 4.125 4.46875 4.125C4.27813 4.125 4.09531 4.05257 3.96052 3.92364C3.82573 3.7947 3.75 3.61984 3.75 3.4375C3.75 3.25516 3.82573 3.0803 3.96052 2.95136C4.09531 2.82243 4.27813 2.75 4.46875 2.75C4.65937 2.75 4.84219 2.82243 4.97698 2.95136C5.11177 3.0803 5.1875 3.25516 5.1875 3.4375ZM15.25 3.4375C15.25 3.61984 15.1743 3.7947 15.0395 3.92364C14.9047 4.05257 14.7219 4.125 14.5312 4.125C14.3406 4.125 14.1578 4.05257 14.023 3.92364C13.8882 3.7947 13.8125 3.61984 13.8125 3.4375C13.8125 3.25516 13.8882 3.0803 14.023 2.95136C14.1578 2.82243 14.3406 2.75 14.5312 2.75C14.7219 2.75 14.9047 2.82243 15.0395 2.95136C15.1743 3.0803 15.25 3.25516 15.25 3.4375ZM4.46875 15.125C4.65937 15.125 4.84219 15.0526 4.97698 14.9236C5.11177 14.7947 5.1875 14.6198 5.1875 14.4375C5.1875 14.2552 5.11177 14.0803 4.97698 13.9514C4.84219 13.8224 4.65937 13.75 4.46875 13.75C4.27813 13.75 4.09531 13.8224 3.96052 13.9514C3.82573 14.0803 3.75 14.2552 3.75 14.4375C3.75 14.6198 3.82573 14.7947 3.96052 14.9236C4.09531 15.0526 4.27813 15.125 4.46875 15.125ZM14.5312 15.125C14.7219 15.125 14.9047 15.0526 15.0395 14.9236C15.1743 14.7947 15.25 14.6198 15.25 14.4375C15.25 14.2552 15.1743 14.0803 15.0395 13.9514C14.9047 13.8224 14.7219 13.75 14.5312 13.75C14.3406 13.75 14.1578 13.8224 14.023 13.9514C13.8882 14.0803 13.8125 14.2552 13.8125 14.4375C13.8125 14.6198 13.8882 14.7947 14.023 14.9236C14.1578 15.0526 14.3406 15.125 14.5312 15.125Z" fill="#464255"/>
<path d="M0.875 2.75C0.875 2.02065 1.1779 1.32118 1.71707 0.805456C2.25623 0.289731 2.9875 0 3.75 0L15.25 0C16.0125 0 16.7438 0.289731 17.2829 0.805456C17.8221 1.32118 18.125 2.02065 18.125 2.75V19.25C18.125 19.9793 17.8221 20.6788 17.2829 21.1945C16.7438 21.7103 16.0125 22 15.25 22H3.75C2.9875 22 2.25623 21.7103 1.71707 21.1945C1.1779 20.6788 0.875 19.9793 0.875 19.25V2.75ZM16.6875 19.25V2.75C16.6875 2.38533 16.536 2.03559 16.2665 1.77773C15.9969 1.51987 15.6312 1.375 15.25 1.375H3.75C3.36875 1.375 3.00312 1.51987 2.73353 1.77773C2.46395 2.03559 2.3125 2.38533 2.3125 2.75V19.25C2.3125 19.6147 2.46395 19.9644 2.73353 20.2223C3.00312 20.4801 3.36875 20.625 3.75 20.625V17.875C3.75 17.5103 3.90145 17.1606 4.17103 16.9027C4.44062 16.6449 4.80625 16.5 5.1875 16.5H13.8125C14.1937 16.5 14.5594 16.6449 14.829 16.9027C15.0985 17.1606 15.25 17.5103 15.25 17.875V20.625C15.6312 20.625 15.9969 20.4801 16.2665 20.2223C16.536 19.9644 16.6875 19.6147 16.6875 19.25ZM6.26562 20.625V17.875H5.1875V20.625H6.26562ZM8.78125 20.625V17.875H7.70312V20.625H8.78125ZM11.2969 20.625V17.875H10.2188V20.625H11.2969ZM13.8125 17.875H12.7344V20.625H13.8125V17.875Z" fill="#464255"/>
</svg>
