<svg width="16" height="17" viewBox="0 0 16 17" fill="none" xmlns="http://www.w3.org/2000/svg">
<path d="M0 5.83333V15.8333C0 16.0544 0.0921872 16.2663 0.256282 16.4226C0.420376 16.5789 0.642936 16.6667 0.875 16.6667H5.25C5.48206 16.6667 5.70462 16.5789 5.86872 16.4226C6.03281 16.2663 6.125 16.0544 6.125 15.8333V10H9.625V15.8333C9.625 16.0544 9.71719 16.2663 9.88128 16.4226C10.0454 16.5789 10.2679 16.6667 10.5 16.6667H14.875C15.1071 16.6667 15.3296 16.5789 15.4937 16.4226C15.6578 16.2663 15.75 16.0544 15.75 15.8333V5.83333C15.75 5.70396 15.7184 5.57637 15.6576 5.46066C15.5969 5.34494 15.5087 5.24429 15.4 5.16667L8.4 0.166667C8.24854 0.0584816 8.06432 0 7.875 0C7.68568 0 7.50146 0.0584816 7.35 0.166667L0.35 5.16667C0.241329 5.24429 0.153125 5.34494 0.0923761 5.46066C0.0316269 5.57637 0 5.70396 0 5.83333V5.83333ZM1.75 6.25L7.875 1.875L14 6.25V15H11.375V9.16667C11.375 8.94565 11.2828 8.73369 11.1187 8.57741C10.9546 8.42113 10.7321 8.33333 10.5 8.33333H5.25C5.01794 8.33333 4.79538 8.42113 4.63128 8.57741C4.46719 8.73369 4.375 8.94565 4.375 9.16667V15H1.75V6.25Z" fill="#0575E6"/>
</svg>
