<svg width="24" height="24" viewBox="0 0 24 24" fill="none" xmlns="http://www.w3.org/2000/svg">
<g clip-path="url(#clip0_278_2726)">
<path d="M20 20L15.95 15.95M15.95 15.95C16.6 15.3 17.1157 14.5282 17.4675 13.6789C17.8193 12.8296 18.0003 11.9193 18.0003 11C18.0003 10.0807 17.8193 9.17041 17.4675 8.32109C17.1157 7.47176 16.6 6.70005 15.95 6.05001C15.2999 5.39996 14.5282 4.88432 13.6789 4.53252C12.8296 4.18072 11.9193 3.99965 11 3.99965C10.0807 3.99965 9.17039 4.18072 8.32107 4.53252C7.47175 4.88432 6.70003 5.39996 6.04999 6.05001C4.73717 7.36283 3.99963 9.1434 3.99963 11C3.99963 12.8566 4.73717 14.6372 6.04999 15.95C7.36281 17.2628 9.14338 18.0004 11 18.0004C12.8566 18.0004 14.6372 17.2628 15.95 15.95Z" stroke="#464255" stroke-width="2" stroke-linecap="round" stroke-linejoin="round"/>
</g>
<defs>
<clipPath id="clip0_278_2726">
<rect width="24" height="24" fill="white"/>
</clipPath>
</defs>
</svg>
