<svg width="21" height="23" viewBox="0 0 21 23" fill="none" xmlns="http://www.w3.org/2000/svg">
<g clip-path="url(#clip0_278_2756)">
<path d="M8.56333 9.46195C7.78316 9.46194 7.02053 9.20848 6.37192 8.73363C5.72332 8.25879 5.2179 7.58389 4.91961 6.79434C4.62132 6.0048 4.54357 5.13609 4.69619 4.29813C4.84882 3.46017 5.22497 2.69063 5.77704 2.08688C6.32911 1.48313 7.03229 1.0723 7.7976 0.906376C8.56292 0.740453 9.35597 0.826893 10.0764 1.15476C10.7969 1.48263 11.4123 2.03718 11.8449 2.74826C12.2775 3.45934 12.5078 4.29498 12.5067 5.14945C12.5036 6.29326 12.0869 7.38917 11.3479 8.19737C10.6089 9.00557 9.60768 9.46026 8.56333 9.46195ZM8.56333 2.10833C8.01415 2.10833 7.47731 2.28669 7.02069 2.62085C6.56407 2.95502 6.20818 3.42997 5.99802 3.98566C5.78786 4.54135 5.73287 5.15282 5.84001 5.74274C5.94715 6.33265 6.2116 6.87453 6.59993 7.29984C6.98825 7.72514 7.483 8.01478 8.02163 8.13212C8.56025 8.24946 9.11854 8.18924 9.62591 7.95907C10.1333 7.72889 10.5669 7.3391 10.872 6.839C11.1771 6.33889 11.34 5.75092 11.34 5.14945C11.34 4.34289 11.0475 3.56937 10.5267 2.99905C10.006 2.42874 9.29974 2.10833 8.56333 2.10833Z" fill="#0575E6"/>
<path d="M9.57835 20.24C9.45086 20.1003 9.35252 19.932 9.29008 19.7468C9.22765 19.5615 9.20261 19.3636 9.21669 19.1667H2.33335V15.4739C3.16046 14.5073 4.16368 13.7417 5.27807 13.2266C6.39246 12.7115 7.59319 12.4585 8.80252 12.4839H9.22252C9.19575 12.2697 9.21445 12.0516 9.27718 11.8466C9.3399 11.6416 9.44497 11.4552 9.58419 11.3019L9.65419 11.2317C9.38002 11.2317 9.07085 11.1933 8.80252 11.1933C7.37942 11.1563 5.9666 11.4661 4.6662 12.1004C3.36581 12.7346 2.21034 13.6774 1.28335 14.8606C1.20762 14.9711 1.16669 15.1057 1.16669 15.2439V19.1667C1.16669 19.5056 1.2896 19.8306 1.5084 20.0702C1.72719 20.3098 2.02393 20.4444 2.33335 20.4444H9.74169L9.57835 20.24Z" fill="#0575E6"/>
<path d="M15.6742 10.4075C15.7031 10.401 15.7328 10.401 15.7617 10.4075C15.7328 10.4018 15.7031 10.4018 15.6742 10.4075Z" fill="#0575E6"/>
<path d="M19.6467 14.8989L18.48 14.5092C18.3966 14.1966 18.2832 13.8947 18.1417 13.6083L18.725 12.42C18.744 12.3725 18.7485 12.3195 18.738 12.2689C18.7275 12.2183 18.7025 12.1728 18.6667 12.1389L17.8208 11.2125C17.7888 11.1746 17.7461 11.1495 17.6996 11.1414C17.653 11.1333 17.6053 11.1426 17.5642 11.1678L16.4908 11.8067C16.2265 11.6439 15.9468 11.5133 15.6567 11.4169L15.3008 10.1392C15.2857 10.0921 15.2571 10.0517 15.2192 10.0241C15.1813 9.99644 15.1363 9.98301 15.0908 9.98584H13.895C13.8491 9.98525 13.8042 10.0012 13.7673 10.0312C13.7305 10.0612 13.7036 10.1036 13.6908 10.1519L13.335 11.4297C13.0428 11.5228 12.7611 11.6514 12.495 11.8131L11.4333 11.1742C11.3931 11.1495 11.3463 11.1405 11.3008 11.1486C11.2552 11.1567 11.2135 11.1815 11.1825 11.2189L10.3192 12.1389C10.2871 12.1758 10.2665 12.2228 10.2603 12.2733C10.254 12.3237 10.2623 12.375 10.2842 12.42L10.8675 13.5828C10.7132 13.8708 10.5899 14.1773 10.5 14.4964L9.33332 14.8797C9.28919 14.8937 9.25046 14.9231 9.22306 14.9635C9.19567 15.0039 9.18112 15.053 9.18165 15.1033V16.4131C9.1851 16.4592 9.20154 16.503 9.22871 16.5385C9.25588 16.574 9.29243 16.5994 9.33332 16.6111L10.5 17.0008C10.5862 17.3142 10.7036 17.6163 10.85 17.9017L10.2667 19.1219C10.2444 19.1657 10.2358 19.2162 10.2421 19.2657C10.2484 19.3153 10.2693 19.3613 10.3017 19.3967L11.1475 20.3231C11.1805 20.3592 11.2231 20.3829 11.2692 20.3909C11.3153 20.399 11.3625 20.3909 11.4042 20.3678L12.495 19.7289C12.7546 19.8818 13.0284 20.0039 13.3117 20.0931L13.6617 21.3708C13.676 21.4181 13.7033 21.4594 13.7398 21.4891C13.7763 21.5189 13.8203 21.5356 13.8658 21.5369H15.0617C15.1074 21.5365 15.1518 21.5202 15.1885 21.4903C15.2251 21.4605 15.2522 21.4186 15.2658 21.3708L15.6217 20.0611C15.9012 19.9719 16.1711 19.8498 16.4267 19.6969L17.5292 20.3358C17.5697 20.3594 17.6161 20.3678 17.6614 20.3597C17.7067 20.3517 17.7484 20.3276 17.78 20.2911L18.6667 19.4222C18.6905 19.3847 18.7033 19.3401 18.7033 19.2944C18.7033 19.2488 18.6905 19.2042 18.6667 19.1667L18.0833 17.9656C18.2249 17.6837 18.3384 17.386 18.4217 17.0775L19.5883 16.6878C19.6325 16.6738 19.6712 16.6444 19.6986 16.604C19.726 16.5636 19.7405 16.5145 19.74 16.4642V15.1225C19.7453 15.0794 19.7394 15.0355 19.7229 14.9959C19.7064 14.9563 19.6799 14.9227 19.6467 14.8989ZM14.4958 17.8889C14.11 17.8902 13.7325 17.7659 13.4112 17.5319C13.0899 17.2979 12.8393 16.9647 12.6911 16.5746C12.5429 16.1844 12.5038 15.7548 12.5788 15.3403C12.6538 14.9257 12.8395 14.5449 13.1123 14.2461C13.3851 13.9473 13.7328 13.7439 14.1113 13.6618C14.4898 13.5797 14.882 13.6225 15.2383 13.7848C15.5945 13.9471 15.8988 14.2216 16.1124 14.5735C16.326 14.9254 16.4395 15.3388 16.4383 15.7614C16.4368 16.3251 16.2316 16.8653 15.8677 17.2639C15.5037 17.6625 15.0105 17.8872 14.4958 17.8889Z" fill="#0575E6"/>
</g>
<defs>
<clipPath id="clip0_278_2756">
<rect width="21" height="23" fill="white"/>
</clipPath>
</defs>
</svg>
