<svg width="22" height="22" viewBox="0 0 22 22" fill="none" xmlns="http://www.w3.org/2000/svg">
<g clip-path="url(#clip0_278_2776)">
<path d="M15.4 21.252V21.9853H16.1333V21.252H15.4ZM0.733333 21.252H0V21.9853H0.733333V21.252ZM21.2667 21.2667V22H22V21.2667H21.2667ZM11.7333 5.1304C11.7331 5.61172 11.6381 6.08829 11.4538 6.5329C11.2694 6.97751 10.9993 7.38145 10.6588 7.72166C10.3183 8.06187 9.91415 8.33168 9.46939 8.5157C9.02463 8.69971 8.54799 8.79433 8.06667 8.79413V10.2608C10.9017 10.2608 13.2 7.964 13.2 5.1304H11.7333ZM8.06667 8.79413C7.58535 8.79433 7.1087 8.69971 6.66394 8.5157C6.21919 8.33168 5.81503 8.06187 5.47455 7.72166C5.13407 7.38145 4.86393 6.97751 4.67956 6.5329C4.49519 6.08829 4.40019 5.61172 4.4 5.1304H2.93333C2.93353 5.80433 3.06646 6.47162 3.32453 7.09417C3.58261 7.71672 3.96079 8.28235 4.43746 8.75875C4.91413 9.23515 5.47997 9.613 6.10267 9.87072C6.72538 10.1284 7.39274 10.261 8.06667 10.2608V8.79413ZM4.4 5.1304C4.40019 4.64908 4.49519 4.17251 4.67956 3.7279C4.86393 3.28329 5.13407 2.87935 5.47455 2.53914C5.81503 2.19893 6.21919 1.92912 6.66394 1.7451C7.1087 1.56109 7.58535 1.46647 8.06667 1.46667V2.09663e-07C7.39274 -0.000192423 6.72538 0.132356 6.10267 0.390079C5.47997 0.647801 4.91413 1.02565 4.43746 1.50205C3.96079 1.97845 3.58261 2.54408 3.32453 3.16663C3.06646 3.78918 2.93353 4.45647 2.93333 5.1304H4.4ZM8.06667 1.46667C9.03862 1.46667 9.97081 1.85257 10.6584 2.53957C11.3459 3.22657 11.7326 4.15845 11.7333 5.1304H13.2C13.1998 4.45647 13.0669 3.78918 12.8088 3.16663C12.5507 2.54408 12.1725 1.97845 11.6959 1.50205C11.2192 1.02565 10.6534 0.647801 10.0307 0.390079C9.40796 0.132356 8.74059 -0.000192423 8.06667 2.09663e-07V1.46667ZM15.4 20.5187H0.733333V21.9853H15.4V20.5187ZM1.46667 21.252V18.326H0V21.252H1.46667ZM5.13333 14.6579H11V13.1912H5.13333V14.6579ZM14.6667 18.3245V21.252H16.1333V18.3245H14.6667ZM11 14.6579C11.9725 14.6579 12.9051 15.0442 13.5927 15.7318C14.2804 16.4194 14.6667 17.3521 14.6667 18.3245H16.1333C16.1333 16.9631 15.5925 15.6574 14.6298 14.6947C13.6671 13.732 12.3614 13.1912 11 13.1912V14.6579ZM1.46667 18.326C1.46667 17.3535 1.85298 16.4194 2.54061 15.7318C3.22824 15.0442 4.16087 14.6579 5.13333 14.6579V13.1912C3.77189 13.1912 2.46621 13.732 1.50352 14.6947C0.540832 15.6574 0 16.9646 0 18.326H1.46667ZM20.5333 19.0667V21.2667H22V19.0667H20.5333ZM21.2667 20.5333H17.6V22H21.2667V20.5333ZM17.6 16.1333C18.378 16.1333 19.1241 16.4424 19.6742 16.9925C20.2243 17.5426 20.5333 18.2887 20.5333 19.0667H22C22 17.8997 21.5364 16.7806 20.7113 15.9554C19.8861 15.1302 18.767 14.6667 17.6 14.6667V16.1333ZM16.8667 11.7333C16.2832 11.7333 15.7236 11.5015 15.311 11.089C14.8985 10.6764 14.6667 10.1168 14.6667 9.53333H13.2C13.2 10.5058 13.5863 11.4384 14.2739 12.1261C14.9616 12.8137 15.8942 13.2 16.8667 13.2V11.7333ZM19.0667 9.53333C19.0667 10.1168 18.8349 10.6764 18.4223 11.089C18.0097 11.5015 17.4501 11.7333 16.8667 11.7333V13.2C17.8391 13.2 18.7718 12.8137 19.4594 12.1261C20.147 11.4384 20.5333 10.5058 20.5333 9.53333H19.0667ZM16.8667 7.33333C17.4501 7.33333 18.0097 7.56512 18.4223 7.9777C18.8349 8.39028 19.0667 8.94986 19.0667 9.53333H20.5333C20.5333 8.56087 20.147 7.62824 19.4594 6.94061C18.7718 6.25298 17.8391 5.86667 16.8667 5.86667V7.33333ZM16.8667 5.86667C15.8942 5.86667 14.9616 6.25298 14.2739 6.94061C13.5863 7.62824 13.2 8.56087 13.2 9.53333H14.6667C14.6667 8.94986 14.8985 8.39028 15.311 7.9777C15.7236 7.56512 16.2832 7.33333 16.8667 7.33333V5.86667Z" fill="#0575E6"/>
</g>
<defs>
<clipPath id="clip0_278_2776">
<rect width="22" height="22" fill="white"/>
</clipPath>
</defs>
</svg>
